<?xml version="1.0" standalone="no"?>
<!DOCTYPE svg PUBLIC "-//W3C//DTD SVG 20010904//EN"
 "http://www.w3.org/TR/2001/REC-SVG-20010904/DTD/svg10.dtd">
<svg version="1.0" xmlns="http://www.w3.org/2000/svg"
 width="700.000000pt" height="700.000000pt" viewBox="0 0 700.000000 700.000000"
 preserveAspectRatio="xMidYMid meet">
<metadata>
Created by potrace 1.14, written by Peter Selinger 2001-2017
</metadata>
<g transform="translate(0.000000,700.000000) scale(0.100000,-0.100000)"
fill="#000000" stroke="none">
<path d="M1479 6996 c-2 -2 -29 -6 -59 -10 -272 -31 -530 -133 -762 -301 -92
-67 -277 -247 -323 -316 -16 -24 -33 -46 -36 -49 -14 -11 -82 -124 -125 -207
-53 -103 -117 -285 -138 -398 -9 -44 -19 -93 -23 -110 -4 -16 -9 -1226 -10
-2688 l-3 -2657 2627 1 c1613 0 2651 4 2688 10 33 5 75 12 93 14 90 14 244 59
348 104 205 87 354 190 519 356 198 199 324 416 404 695 31 109 36 135 49 235
9 78 9 3843 0 3915 -36 267 -138 522 -296 744 -66 92 -231 263 -317 328 -197
149 -423 253 -655 302 -41 8 -91 19 -110 23 -35 7 -3863 17 -3871 9z"/>
</g>
</svg>
