<svg width="53" height="51" viewBox="0 0 53 51" fill="none" xmlns="http://www.w3.org/2000/svg">
<path d="M1 25C0.447715 25 0 25.4477 0 26C0 26.5523 0.447715 27 1 27V25ZM32.7071 26.7071C33.0976 26.3166 33.0976 25.6834 32.7071 25.2929L26.3431 18.9289C25.9526 18.5384 25.3195 18.5384 24.9289 18.9289C24.5384 19.3195 24.5384 19.9526 24.9289 20.3431L30.5858 26L24.9289 31.6569C24.5384 32.0474 24.5384 32.6805 24.9289 33.0711C25.3195 33.4616 25.9526 33.4616 26.3431 33.0711L32.7071 26.7071ZM1 27H32V25H1V27Z" fill="#563FDF"/>
<path opacity="0.34" d="M17.5 2.91571L17.5 1.93379C17.5 1.83085 17.5275 1.74441 17.5707 1.67364L17.1441 1.41288C17.3375 1.09649 17.6997 0.909202 18.0696 0.934271L18.0358 1.43313C18.1186 1.43873 18.205 1.46627 18.289 1.52577L19.1208 2.11493L19.4098 1.70692L21.0733 2.88523L20.7843 3.29324L22.4478 4.47155L22.7368 4.06354L24.4003 5.24185L24.1113 5.64987L25.7748 6.82818L26.0638 6.42016L27.7273 7.59847L27.4382 8.00649L29.1017 9.1848L29.3908 8.77678L31.0543 9.95509L30.7652 10.3631L32.4287 11.5414L32.7177 11.1334L34.3812 12.3117L34.0922 12.7197L35.7557 13.898L36.0447 13.49L37.7082 14.6683L37.4192 15.0763L39.0827 16.2547L39.3717 15.8466L41.0352 17.025L40.7462 17.433L42.4097 18.6113L42.6987 18.2033L44.3622 19.3816L44.0732 19.7896L45.7367 20.9679L46.0257 20.5599L47.6892 21.7382L47.4002 22.1462L49.0637 23.3245L49.3527 22.9165L51.0162 24.0948L50.7272 24.5028L51.559 25.092C51.6295 25.1419 51.6804 25.2031 51.7146 25.2695L52.159 25.0403C52.3069 25.3271 52.3069 25.6729 52.159 25.9597L51.7146 25.7305C51.6804 25.7969 51.6295 25.8581 51.559 25.908L50.7272 26.4972L51.0162 26.9052L49.3527 28.0835L49.0637 27.6755L47.4002 28.8538L47.6892 29.2618L46.0257 30.4401L45.7367 30.0321L44.0732 31.2104L44.3622 31.6184L42.6987 32.7967L42.4097 32.3887L40.7462 33.567L41.0352 33.975L39.3717 35.1534L39.0827 34.7453L37.4192 35.9237L37.7082 36.3317L36.0447 37.51L35.7557 37.102L34.0922 38.2803L34.3812 38.6883L32.7177 39.8666L32.4287 39.4586L30.7652 40.6369L31.0542 41.0449L29.3908 42.2232L29.1017 41.8152L27.4382 42.9935L27.7273 43.4015L26.0638 44.5798L25.7747 44.1718L24.1113 45.3501L24.4003 45.7581L22.7368 46.9365L22.4478 46.5284L20.7843 47.7068L21.0733 48.1148L19.4098 49.2931L19.1208 48.8851L18.289 49.4742C18.205 49.5337 18.1186 49.5613 18.0358 49.5669L18.0696 50.0657C17.6997 50.0908 17.3375 49.9035 17.1441 49.5871L17.5707 49.3264C17.5275 49.2556 17.5 49.1692 17.5 49.0662V48.0843H17V46.1204H17.5L17.5 44.1566H17V42.1927H17.5V40.2289H17V38.265H17.5V36.3012H17V34.3373H17.5V32.3735H17V30.4096H17.5V28.4458H17V26.4819H17.5L17.5 24.5181H17V22.5542H17.5L17.5 20.5904H17V18.6265H17.5V16.6627H17V14.6988H17.5V12.735H17V10.7711H17.5V8.80727H17V6.84342H17.5V4.87957H17V2.91571H17.5Z" stroke="#563FDF" stroke-dasharray="2 2"/>
</svg>
